<?xml version="1.0" encoding="UTF-8" standalone="no"?>
<!-- Created with Inkscape (http://www.inkscape.org/) -->

<svg
   xmlns:dc="http://purl.org/dc/elements/1.1/"
   xmlns:cc="http://creativecommons.org/ns#"
   xmlns:rdf="http://www.w3.org/1999/02/22-rdf-syntax-ns#"
   xmlns:svg="http://www.w3.org/2000/svg"
   xmlns="http://www.w3.org/2000/svg"
   xmlns:sodipodi="http://sodipodi.sourceforge.net/DTD/sodipodi-0.dtd"
   xmlns:inkscape="http://www.inkscape.org/namespaces/inkscape"
   width="32"
   height="32"
   id="svg3140"
   version="1.1"
   inkscape:version="0.48.3.1 r9886"
   sodipodi:docname="linked_nas.svg"
   inkscape:export-filename="/home/alessandro/Scrivania/linked_nas_333.png"
   inkscape:export-xdpi="360"
   inkscape:export-ydpi="360">
  <defs
     id="defs3142">
	
</defs>
  <sodipodi:namedview
     id="base"
     pagecolor="#ffffff"
     bordercolor="#666666"
     borderopacity="1.0"
     inkscape:pageopacity="0.0"
     inkscape:pageshadow="2"
     inkscape:zoom="27.40625"
     inkscape:cx="13.795082"
     inkscape:cy="20.662016"
     inkscape:document-units="px"
     inkscape:current-layer="layer1"
     showgrid="false"
     showborder="true"
     inkscape:showpageshadow="false"
     inkscape:window-width="1871"
     inkscape:window-height="1056"
     inkscape:window-x="49"
     inkscape:window-y="24"
     inkscape:window-maximized="1"
     showguides="true"
     inkscape:guide-bbox="true" />
  <metadata
     id="metadata3145">
    <rdf:RDF>
      <cc:Work
         rdf:about="">
        <dc:format>image/svg+xml</dc:format>
        <dc:type
           rdf:resource="http://purl.org/dc/dcmitype/StillImage" />
        <dc:title></dc:title>
      </cc:Work>
    </rdf:RDF>
  </metadata>
  <g
     inkscape:label="Livello 1"
     inkscape:groupmode="layer"
     id="layer1"
     transform="translate(0,-1020.3622)">
    <g
       id="server"
       transform="matrix(0.66666665,0,0,0.66666665,-2.6666665,1030.14)" />
    <g
       id="server-8"
       transform="matrix(0.66666665,0,0,0.66666665,13.333334,1014.14)" />
    <path
       id="path4046"
       d="m 8.908,1037.2505 c -0.151,-0.4245 -0.4845,-0.758 -0.909,-0.9085 l 0,-5.9798 2.001,0 0,-1.9995 6.425245,0 c 0.151,0.424 0.484,0.7565 0.9075,0.9075 l 5e-4,-2.816 c -0.425,0.151 -0.7585,0.4845 -0.9085,0.909 L 10,1027.3627 l 0,-1.0005 -4,0 0,4 1,0 0,5.9798 c -0.4245,0.1505 -0.7575,0.484 -0.908,0.9085 z m 8.425,-15.9994 3.34e-4,12.8889 1.333333,0 0,1.3333 2.666667,0 0,-1.3333 5.333333,0 0,1.3333 2.666667,0 0,-1.3333 1.333333,0 0,-12.8889 z m 4.000334,4 -2.666667,0 0,-1.3333 2.666667,0 z m -20.0000006,12 -10e-8,12.8889 1.3333334,0 0,1.3333 2.6666666,0 0,-1.3333 5.3333337,0 0,1.3333 2.666666,0 0,-1.3333 1.333333,0 0,-12.8889 z m 3.9999999,4 -2.6666666,0 0,-1.3333 2.6666666,0 z"
       style="fill:#0a0a0a;fill-opacity:1"
       inkscape:connector-curvature="0" />
  </g>
</svg>
