<?xml version="1.0" encoding="UTF-8" standalone="no"?>
<!-- Created with Inkscape (http://www.inkscape.org/) -->

<svg
   xmlns:dc="http://purl.org/dc/elements/1.1/"
   xmlns:cc="http://creativecommons.org/ns#"
   xmlns:rdf="http://www.w3.org/1999/02/22-rdf-syntax-ns#"
   xmlns:svg="http://www.w3.org/2000/svg"
   xmlns="http://www.w3.org/2000/svg"
   xmlns:sodipodi="http://sodipodi.sourceforge.net/DTD/sodipodi-0.dtd"
   xmlns:inkscape="http://www.inkscape.org/namespaces/inkscape"
   width="32"
   height="32"
   id="svg3140"
   version="1.1"
   inkscape:version="0.48.4 r9939"
   sodipodi:docname="nas_search.svg"
   inkscape:export-filename="/home/alessandro/Scrivania/Ninuxoo-Semantic-Decentralized/Sorgenti svg/nas_search_128_333.png"
   inkscape:export-xdpi="360"
   inkscape:export-ydpi="360">
  <defs
     id="defs3142" />
  <sodipodi:namedview
     id="base"
     pagecolor="#ffffff"
     bordercolor="#666666"
     borderopacity="1.0"
     inkscape:pageopacity="0.0"
     inkscape:pageshadow="2"
     inkscape:zoom="19.379145"
     inkscape:cx="16.48177"
     inkscape:cy="11.135961"
     inkscape:document-units="px"
     inkscape:current-layer="g3950"
     showgrid="false"
     showborder="true"
     inkscape:showpageshadow="false"
     inkscape:window-width="1867"
     inkscape:window-height="1056"
     inkscape:window-x="53"
     inkscape:window-y="24"
     inkscape:window-maximized="1" />
  <metadata
     id="metadata3145">
    <rdf:RDF>
      <cc:Work
         rdf:about="">
        <dc:format>image/svg+xml</dc:format>
        <dc:type
           rdf:resource="http://purl.org/dc/dcmitype/StillImage" />
        <dc:title></dc:title>
      </cc:Work>
    </rdf:RDF>
  </metadata>
  <g
     inkscape:label="Livello 1"
     inkscape:groupmode="layer"
     id="layer1"
     transform="translate(0,-1020.3622)">
    <g
       id="g3950">
      <path
         id="polygon3868"
         transform="matrix(0.5,0,0,0.49998215,7.3573087,1021.2209)"
         d="m 20,16 0,2 -16,0 0,0 0,-2 z m 0,-4 0,2 -16,0 0,0 0,-2 z m -4,8 0,2 -12,0 0,0 0,-2 z M 11.972883,0.28261009 c -9.235242,0 -16.6856434,7.45276611 -16.6875004,16.68809591 5.606e-4,2.787173 0.6723678,5.435488 1.875,7.750277 l -9.8749996,0 0,32.251151 3.3124996,0 0,3.312618 6.6875,0 0,-3.312618 13.3125004,0 0,3.312618 6.6875,0 0,-3.312618 3.3125,0 0,-23.938355 19.25,19.250688 7.4375,-7.437766 -20.375,-20.375727 c 1.134674,-2.256281 1.810644,-4.801972 1.8125,-7.500268 -0.0038,-9.2353298 -7.518472,-16.68449578 -16.75,-16.68809591 z m 0,3.68763161 c 7.181314,0.020001 12.985144,5.8154076 13,13.0004643 -0.0148,7.181256 -5.818686,12.985663 -13,13.000464 C 4.7897104,29.951169 -1.015975,24.151962 -1.0271174,16.970706 -1.0159774,9.7874494 4.7897104,3.9814421 11.972883,3.9702417 z m -21.3750004,27.4384793 6.6875,0 0,3.312619 -6.6875,0 z"
         inkscape:connector-curvature="0"
         sodipodi:nodetypes="cccccccccccccccccccccccccccccccccccccccccccccccc" />
    </g>
  </g>
</svg>
