<?xml version="1.0" encoding="UTF-8" standalone="no"?>
<!DOCTYPE svg PUBLIC "-//W3C//DTD SVG 1.1//EN"
 "http://www.w3.org/Graphics/SVG/1.1/DTD/svg11.dtd">
<!-- Generated by graphviz version 2.26.3 (20100126.1600)
 -->
<!-- Title: G Pages: 1 -->
<svg width="124pt" height="638pt"
 viewBox="0.00 0.00 124.00 638.00" xmlns="http://www.w3.org/2000/svg" xmlns:xlink="http://www.w3.org/1999/xlink">
<g id="graph1" class="graph" transform="scale(1 1) rotate(0) translate(4 634)">
<title>G</title>
<polygon fill="white" stroke="white" points="-4,5 -4,-634 121,-634 121,5 -4,5"/>
<g id="graph2" class="cluster"><title>cluster_Global</title>
<polyline fill="none" stroke="gray" points="20,-8 96,-8 "/>
<path fill="none" stroke="gray" d="M96,-8C102,-8 108,-14 108,-20"/>
<polyline fill="none" stroke="gray" points="108,-20 108,-610 "/>
<path fill="none" stroke="gray" d="M108,-610C108,-616 102,-622 96,-622"/>
<polyline fill="none" stroke="gray" points="96,-622 20,-622 "/>
<path fill="none" stroke="gray" d="M20,-622C14,-622 8,-616 8,-610"/>
<polyline fill="none" stroke="gray" points="8,-610 8,-20 "/>
<path fill="none" stroke="gray" d="M8,-20C8,-14 14,-8 20,-8"/>
<text text-anchor="middle" x="58" y="-608.1" font-family="Times Roman,serif" font-size="11.00" fill="gray">Global</text>
</g>
<!-- \\bg_process -->
<g id="node2" class="node"><title>\\bg_process</title>
<polygon fill="none" stroke="black" points="97,-592 19,-592 19,-556 97,-556 97,-592"/>
<text text-anchor="middle" x="58" y="-571.1" font-family="Times Roman,serif" font-size="11.00">bg_process</text>
</g>
<!-- \\scan -->
<g id="node3" class="node"><title>\\scan</title>
<polygon fill="none" stroke="black" points="85,-538 31,-538 31,-502 85,-502 85,-538"/>
<text text-anchor="middle" x="58" y="-517.1" font-family="Times Roman,serif" font-size="11.00">scan</text>
</g>
<!-- \\link_nas -->
<g id="node4" class="node"><title>\\link_nas</title>
<polygon fill="none" stroke="black" points="87,-484 29,-484 29,-448 87,-448 87,-484"/>
<text text-anchor="middle" x="58" y="-463.1" font-family="Times Roman,serif" font-size="11.00">link_nas</text>
</g>
<!-- \\Logging -->
<g id="node5" class="node"><title>\\Logging</title>
<polygon fill="none" stroke="black" points="87,-430 29,-430 29,-394 87,-394 87,-430"/>
<text text-anchor="middle" x="58" y="-409.1" font-family="Times Roman,serif" font-size="11.00">Logging</text>
</g>
<!-- \\mdns -->
<g id="node6" class="node"><title>\\mdns</title>
<polygon fill="none" stroke="black" points="85,-376 31,-376 31,-340 85,-340 85,-376"/>
<text text-anchor="middle" x="58" y="-355.1" font-family="Times Roman,serif" font-size="11.00">mdns</text>
</g>
<!-- \\local_search -->
<g id="node7" class="node"><title>\\local_search</title>
<polygon fill="none" stroke="black" points="99,-322 17,-322 17,-286 99,-286 99,-322"/>
<text text-anchor="middle" x="58" y="-301.1" font-family="Times Roman,serif" font-size="11.00">local_search</text>
</g>
<!-- \\yourls -->
<g id="node8" class="node"><title>\\yourls</title>
<polygon fill="none" stroke="black" points="85,-268 31,-268 31,-232 85,-232 85,-268"/>
<text text-anchor="middle" x="58" y="-247.1" font-family="Times Roman,serif" font-size="11.00">yourls</text>
</g>
<!-- \\rsa -->
<g id="node9" class="node"><title>\\rsa</title>
<polygon fill="none" stroke="black" points="85,-214 31,-214 31,-178 85,-178 85,-214"/>
<text text-anchor="middle" x="58" y="-193.1" font-family="Times Roman,serif" font-size="11.00">rsa</text>
</g>
<!-- \\Sendmail -->
<g id="node10" class="node"><title>\\Sendmail</title>
<polygon fill="none" stroke="black" points="91,-160 25,-160 25,-124 91,-124 91,-160"/>
<text text-anchor="middle" x="58" y="-139.1" font-family="Times Roman,serif" font-size="11.00">Sendmail</text>
</g>
<!-- \\chat -->
<g id="node11" class="node"><title>\\chat</title>
<polygon fill="none" stroke="black" points="85,-106 31,-106 31,-70 85,-70 85,-106"/>
<text text-anchor="middle" x="58" y="-85.1" font-family="Times Roman,serif" font-size="11.00">chat</text>
</g>
<!-- \\wikipedia -->
<g id="node12" class="node"><title>\\wikipedia</title>
<polygon fill="none" stroke="black" points="91,-52 25,-52 25,-16 91,-16 91,-52"/>
<text text-anchor="middle" x="58" y="-31.1" font-family="Times Roman,serif" font-size="11.00">wikipedia</text>
</g>
</g>
</svg>
