<?xml version="1.0" encoding="UTF-8" standalone="no"?>
<!DOCTYPE svg PUBLIC "-//W3C//DTD SVG 1.1//EN"
 "http://www.w3.org/Graphics/SVG/1.1/DTD/svg11.dtd">
<!-- Generated by graphviz version 2.26.3 (20100126.1600)
 -->
<!-- Title: G Pages: 1 -->
<svg width="138pt" height="692pt"
 viewBox="0.00 0.00 138.00 692.00" xmlns="http://www.w3.org/2000/svg" xmlns:xlink="http://www.w3.org/1999/xlink">
<g id="graph1" class="graph" transform="scale(1 1) rotate(0) translate(4 688)">
<title>G</title>
<polygon fill="white" stroke="white" points="-4,5 -4,-688 135,-688 135,5 -4,5"/>
<g id="graph2" class="cluster"><title>cluster_Global</title>
<polyline fill="none" stroke="gray" points="20,-8 110,-8 "/>
<path fill="none" stroke="gray" d="M110,-8C116,-8 122,-14 122,-20"/>
<polyline fill="none" stroke="gray" points="122,-20 122,-664 "/>
<path fill="none" stroke="gray" d="M122,-664C122,-670 116,-676 110,-676"/>
<polyline fill="none" stroke="gray" points="110,-676 20,-676 "/>
<path fill="none" stroke="gray" d="M20,-676C14,-676 8,-670 8,-664"/>
<polyline fill="none" stroke="gray" points="8,-664 8,-20 "/>
<path fill="none" stroke="gray" d="M8,-20C8,-14 14,-8 20,-8"/>
<text text-anchor="middle" x="65" y="-662.1" font-family="Times Roman,serif" font-size="11.00" fill="gray">Global</text>
</g>
<!-- \\bg_process -->
<g id="node2" class="node"><title>\\bg_process</title>
<polygon fill="none" stroke="black" points="104,-646 26,-646 26,-610 104,-610 104,-646"/>
<text text-anchor="middle" x="65" y="-625.1" font-family="Times Roman,serif" font-size="11.00">bg_process</text>
</g>
<!-- \\scan -->
<g id="node3" class="node"><title>\\scan</title>
<polygon fill="none" stroke="black" points="92,-592 38,-592 38,-556 92,-556 92,-592"/>
<text text-anchor="middle" x="65" y="-571.1" font-family="Times Roman,serif" font-size="11.00">scan</text>
</g>
<!-- \\link_nas -->
<g id="node4" class="node"><title>\\link_nas</title>
<polygon fill="none" stroke="black" points="94,-538 36,-538 36,-502 94,-502 94,-538"/>
<text text-anchor="middle" x="65" y="-517.1" font-family="Times Roman,serif" font-size="11.00">link_nas</text>
</g>
<!-- \\Logging -->
<g id="node5" class="node"><title>\\Logging</title>
<polygon fill="none" stroke="black" points="94,-484 36,-484 36,-448 94,-448 94,-484"/>
<text text-anchor="middle" x="65" y="-463.1" font-family="Times Roman,serif" font-size="11.00">Logging</text>
</g>
<!-- \\mdns -->
<g id="node6" class="node"><title>\\mdns</title>
<polygon fill="none" stroke="black" points="92,-430 38,-430 38,-394 92,-394 92,-430"/>
<text text-anchor="middle" x="65" y="-409.1" font-family="Times Roman,serif" font-size="11.00">mdns</text>
</g>
<!-- \\local_search -->
<g id="node7" class="node"><title>\\local_search</title>
<polygon fill="none" stroke="black" points="106,-376 24,-376 24,-340 106,-340 106,-376"/>
<text text-anchor="middle" x="65" y="-355.1" font-family="Times Roman,serif" font-size="11.00">local_search</text>
</g>
<!-- \\yourls -->
<g id="node8" class="node"><title>\\yourls</title>
<polygon fill="none" stroke="black" points="92,-322 38,-322 38,-286 92,-286 92,-322"/>
<text text-anchor="middle" x="65" y="-301.1" font-family="Times Roman,serif" font-size="11.00">yourls</text>
</g>
<!-- \\rsa -->
<g id="node9" class="node"><title>\\rsa</title>
<polygon fill="none" stroke="black" points="92,-268 38,-268 38,-232 92,-232 92,-268"/>
<text text-anchor="middle" x="65" y="-247.1" font-family="Times Roman,serif" font-size="11.00">rsa</text>
</g>
<!-- \\semantic_data -->
<g id="node10" class="node"><title>\\semantic_data</title>
<polygon fill="none" stroke="black" points="114,-214 16,-214 16,-178 114,-178 114,-214"/>
<text text-anchor="middle" x="65" y="-193.1" font-family="Times Roman,serif" font-size="11.00">semantic_data</text>
</g>
<!-- \\Sendmail -->
<g id="node11" class="node"><title>\\Sendmail</title>
<polygon fill="none" stroke="black" points="98,-160 32,-160 32,-124 98,-124 98,-160"/>
<text text-anchor="middle" x="65" y="-139.1" font-family="Times Roman,serif" font-size="11.00">Sendmail</text>
</g>
<!-- \\chat -->
<g id="node12" class="node"><title>\\chat</title>
<polygon fill="none" stroke="black" points="92,-106 38,-106 38,-70 92,-70 92,-106"/>
<text text-anchor="middle" x="65" y="-85.1" font-family="Times Roman,serif" font-size="11.00">chat</text>
</g>
<!-- \\wikipedia -->
<g id="node13" class="node"><title>\\wikipedia</title>
<polygon fill="none" stroke="black" points="98,-52 32,-52 32,-16 98,-16 98,-52"/>
<text text-anchor="middle" x="65" y="-31.1" font-family="Times Roman,serif" font-size="11.00">wikipedia</text>
</g>
</g>
</svg>
