<?xml version="1.0" encoding="UTF-8" standalone="no"?>
<!DOCTYPE svg PUBLIC "-//W3C//DTD SVG 1.1//EN"
 "http://www.w3.org/Graphics/SVG/1.1/DTD/svg11.dtd">
<!-- Generated by graphviz version 2.26.3 (20100126.1600)
 -->
<!-- Title: G Pages: 1 -->
<svg width="124pt" height="584pt"
 viewBox="0.00 0.00 124.00 584.00" xmlns="http://www.w3.org/2000/svg" xmlns:xlink="http://www.w3.org/1999/xlink">
<g id="graph1" class="graph" transform="scale(1 1) rotate(0) translate(4 580)">
<title>G</title>
<polygon fill="white" stroke="white" points="-4,5 -4,-580 121,-580 121,5 -4,5"/>
<g id="graph2" class="cluster"><title>cluster_Global</title>
<polyline fill="none" stroke="gray" points="20,-8 96,-8 "/>
<path fill="none" stroke="gray" d="M96,-8C102,-8 108,-14 108,-20"/>
<polyline fill="none" stroke="gray" points="108,-20 108,-556 "/>
<path fill="none" stroke="gray" d="M108,-556C108,-562 102,-568 96,-568"/>
<polyline fill="none" stroke="gray" points="96,-568 20,-568 "/>
<path fill="none" stroke="gray" d="M20,-568C14,-568 8,-562 8,-556"/>
<polyline fill="none" stroke="gray" points="8,-556 8,-20 "/>
<path fill="none" stroke="gray" d="M8,-20C8,-14 14,-8 20,-8"/>
<text text-anchor="middle" x="58" y="-554.1" font-family="Times Roman,serif" font-size="11.00" fill="gray">Global</text>
</g>
<!-- \\bg_process -->
<g id="node2" class="node"><title>\\bg_process</title>
<polygon fill="none" stroke="black" points="97,-538 19,-538 19,-502 97,-502 97,-538"/>
<text text-anchor="middle" x="58" y="-517.1" font-family="Times Roman,serif" font-size="11.00">bg_process</text>
</g>
<!-- \\scan -->
<g id="node3" class="node"><title>\\scan</title>
<polygon fill="none" stroke="black" points="85,-484 31,-484 31,-448 85,-448 85,-484"/>
<text text-anchor="middle" x="58" y="-463.1" font-family="Times Roman,serif" font-size="11.00">scan</text>
</g>
<!-- \\link_nas -->
<g id="node4" class="node"><title>\\link_nas</title>
<polygon fill="none" stroke="black" points="87,-430 29,-430 29,-394 87,-394 87,-430"/>
<text text-anchor="middle" x="58" y="-409.1" font-family="Times Roman,serif" font-size="11.00">link_nas</text>
</g>
<!-- \\Logging -->
<g id="node5" class="node"><title>\\Logging</title>
<polygon fill="none" stroke="black" points="87,-376 29,-376 29,-340 87,-340 87,-376"/>
<text text-anchor="middle" x="58" y="-355.1" font-family="Times Roman,serif" font-size="11.00">Logging</text>
</g>
<!-- \\mdns -->
<g id="node6" class="node"><title>\\mdns</title>
<polygon fill="none" stroke="black" points="85,-322 31,-322 31,-286 85,-286 85,-322"/>
<text text-anchor="middle" x="58" y="-301.1" font-family="Times Roman,serif" font-size="11.00">mdns</text>
</g>
<!-- \\local_search -->
<g id="node7" class="node"><title>\\local_search</title>
<polygon fill="none" stroke="black" points="99,-268 17,-268 17,-232 99,-232 99,-268"/>
<text text-anchor="middle" x="58" y="-247.1" font-family="Times Roman,serif" font-size="11.00">local_search</text>
</g>
<!-- \\yourls -->
<g id="node8" class="node"><title>\\yourls</title>
<polygon fill="none" stroke="black" points="85,-214 31,-214 31,-178 85,-178 85,-214"/>
<text text-anchor="middle" x="58" y="-193.1" font-family="Times Roman,serif" font-size="11.00">yourls</text>
</g>
<!-- \\rsa -->
<g id="node9" class="node"><title>\\rsa</title>
<polygon fill="none" stroke="black" points="85,-160 31,-160 31,-124 85,-124 85,-160"/>
<text text-anchor="middle" x="58" y="-139.1" font-family="Times Roman,serif" font-size="11.00">rsa</text>
</g>
<!-- \\Sendmail -->
<g id="node10" class="node"><title>\\Sendmail</title>
<polygon fill="none" stroke="black" points="91,-106 25,-106 25,-70 91,-70 91,-106"/>
<text text-anchor="middle" x="58" y="-85.1" font-family="Times Roman,serif" font-size="11.00">Sendmail</text>
</g>
<!-- \\chat -->
<g id="node11" class="node"><title>\\chat</title>
<polygon fill="none" stroke="black" points="85,-52 31,-52 31,-16 85,-16 85,-52"/>
<text text-anchor="middle" x="58" y="-31.1" font-family="Times Roman,serif" font-size="11.00">chat</text>
</g>
</g>
</svg>
